<svg width="200" height="60" viewBox="0 0 200 60" fill="none" xmlns="http://www.w3.org/2000/svg">
  <!-- Water droplet icon -->
  <path d="M35 10C35 10 20 25 20 35C20 43.2843 26.7157 50 35 50C43.2843 50 50 43.2843 50 35C50 25 35 10 35 10Z" fill="#0891b2"/>
  
  <!-- Inner ripple -->
  <path d="M35 15C35 15 24 27 24 35C24 41.0751 28.9249 46 35 46C41.0751 46 46 41.0751 46 35C46 27 35 15 35 15Z" fill="#06b6d4"/>
  
  <!-- Center dot -->
  <circle cx="35" cy="35" r="5" fill="#ecfeff"/>
  
  <!-- Text: AquaIQ -->
  <text x="60" y="38" font-family="Arial" font-weight="bold" font-size="24" fill="#0e7490">AquaIQ</text>
  
  <!-- Tagline -->
  <text x="62" y="50" font-family="Arial" font-size="10" fill="#0891b2">Smart Water Management</text>
</svg>
